<svg width="22" height="21" viewBox="0 0 22 21" fill="none" xmlns="http://www.w3.org/2000/svg">
<path d="M1.40002 -0.00732422C0.84774 -0.00732422 0.400024 0.440391 0.400024 0.992676C0.400024 1.54496 0.84774 1.99268 1.40002 1.99268V-0.00732422ZM3.69256 0.992676L4.65779 0.73126C4.53973 0.295358 4.14417 -0.00732422 3.69256 -0.00732422V0.992676ZM7.41793 14.7479L6.45271 15.0093C6.58298 15.4903 7.0475 15.802 7.54197 15.7402L7.41793 14.7479ZM18.8806 13.3151L19.0047 14.3073C19.4293 14.2543 19.7732 13.9368 19.8599 13.5177L18.8806 13.3151ZM20.6 5.00462L21.5793 5.20722C21.6402 4.91271 21.5654 4.60641 21.3755 4.37319C21.1856 4.13998 20.9008 4.00462 20.6 4.00462V5.00462ZM4.77913 5.00462L3.8139 5.26603L4.77913 5.00462ZM1.40002 1.99268H3.69256V-0.00732422H1.40002V1.99268ZM7.54197 15.7402L19.0047 14.3073L18.7566 12.3228L7.2939 13.7556L7.54197 15.7402ZM19.8599 13.5177L21.5793 5.20722L19.6208 4.80201L17.9014 13.1125L19.8599 13.5177ZM2.72733 1.25409L3.8139 5.26603L5.74435 4.7432L4.65779 0.73126L2.72733 1.25409ZM3.8139 5.26603L6.45271 15.0093L8.38316 14.4865L5.74435 4.7432L3.8139 5.26603ZM20.6 4.00462H4.77913V6.00462H20.6V4.00462ZM10 18.4999C10 18.7761 9.77617 18.9999 9.50002 18.9999V20.9999C10.8807 20.9999 12 19.8807 12 18.4999H10ZM9.50002 18.9999C9.22388 18.9999 9.00002 18.7761 9.00002 18.4999H7.00002C7.00002 19.8807 8.11931 20.9999 9.50002 20.9999V18.9999ZM9.00002 18.4999C9.00002 18.2238 9.22388 17.9999 9.50002 17.9999V15.9999C8.11931 15.9999 7.00002 17.1192 7.00002 18.4999H9.00002ZM9.50002 17.9999C9.77617 17.9999 10 18.2238 10 18.4999H12C12 17.1192 10.8807 15.9999 9.50002 15.9999V17.9999ZM18 18.4999C18 18.7761 17.7762 18.9999 17.5 18.9999V20.9999C18.8807 20.9999 20 19.8807 20 18.4999H18ZM17.5 18.9999C17.2239 18.9999 17 18.7761 17 18.4999H15C15 19.8807 16.1193 20.9999 17.5 20.9999V18.9999ZM17 18.4999C17 18.2238 17.2239 17.9999 17.5 17.9999V15.9999C16.1193 15.9999 15 17.1192 15 18.4999H17ZM17.5 17.9999C17.7762 17.9999 18 18.2238 18 18.4999H20C20 17.1192 18.8807 15.9999 17.5 15.9999V17.9999Z" fill="white"/>
</svg>
